<?xml version="1.0" standalone="no"?>
<!DOCTYPE svg PUBLIC "-//W3C//DTD SVG 20010904//EN"
 "http://www.w3.org/TR/2001/REC-SVG-20010904/DTD/svg10.dtd">
<svg version="1.0" xmlns="http://www.w3.org/2000/svg"
 width="960.000000pt" height="960.000000pt" viewBox="0 0 960.000000 960.000000"
 preserveAspectRatio="xMidYMid meet">
<metadata>
Created by potrace 1.11, written by Peter Selinger 2001-2013
</metadata>
<g transform="translate(0.000000,960.000000) scale(0.100000,-0.100000)"
fill="#000000" stroke="none">
<path d="M338 8635 c-2 -3 -29 -7 -59 -9 -30 -2 -54 -5 -54 -6 0 -1 -11 -4
-25 -5 -57 -8 -98 -16 -145 -28 l-50 -13 -3 -3772 -2 -3771 52 -15 c51 -14 72
-19 148 -32 19 -3 46 -8 60 -10 51 -9 347 -12 405 -4 33 5 78 11 100 14 36 5
70 11 100 20 6 2 27 6 48 11 20 4 40 11 43 16 3 5 9 7 14 4 8 -5 127 36 205
70 22 10 42 19 45 19 23 6 110 51 110 58 0 5 4 7 9 4 5 -3 14 1 21 9 7 8 16
15 21 15 21 0 251 154 346 233 46 36 284 278 333 336 37 44 88 110 193 252 14
18 22 32 74 114 20 33 40 62 43 65 26 21 227 420 279 555 5 11 13 31 19 45 35
79 83 208 88 237 3 18 10 36 15 39 5 3 7 9 4 14 -3 5 -1 11 4 14 8 6 51 -43
51 -58 0 -3 6 -14 14 -23 8 -10 45 -58 82 -108 158 -214 375 -441 582 -610 13
-11 33 -28 43 -37 10 -10 23 -18 27 -18 4 0 14 -9 22 -20 8 -11 18 -20 23 -20
5 0 27 -15 50 -34 51 -41 278 -190 367 -240 121 -68 399 -200 445 -212 14 -3
28 -10 31 -15 3 -5 11 -9 19 -9 8 0 24 -4 37 -9 13 -5 26 -8 29 -7 3 0 13 -5
21 -12 9 -7 24 -14 34 -16 11 -3 39 -11 64 -20 64 -21 261 -77 287 -81 11 -2
30 -6 41 -9 11 -4 31 -9 44 -11 13 -3 34 -7 48 -10 48 -10 75 -15 110 -21 50
-8 81 -13 109 -19 14 -2 50 -7 80 -10 31 -3 70 -7 86 -10 161 -23 634 -22 790
1 17 2 48 6 70 8 66 7 139 17 155 21 8 3 33 7 55 10 33 5 72 12 105 20 3 1 32
7 65 14 33 7 74 17 91 22 17 5 40 11 50 13 88 17 457 142 489 166 6 4 28 13
49 20 60 19 405 198 437 226 8 8 21 14 27 14 7 0 12 4 12 9 0 5 11 12 25 15
14 4 25 11 25 16 0 6 6 10 13 10 7 0 22 8 33 17 11 10 51 39 89 65 274 184
581 481 806 778 90 120 229 331 229 349 0 5 3 11 8 13 11 5 117 210 161 313
12 28 26 59 31 70 21 45 80 208 80 221 0 8 5 14 10 14 6 0 9 3 8 8 -2 6 6 39
27 122 1 3 5 12 8 20 8 18 47 176 53 210 2 14 6 34 9 46 3 12 7 39 11 60 8 47
12 69 14 69 1 0 3 20 5 45 2 25 6 59 10 75 13 65 19 200 18 420 0 217 -3 270
-19 390 -3 28 -8 61 -9 75 -2 14 -4 27 -5 30 -1 3 -2 8 -1 12 1 11 -48 253
-59 285 -6 21 -9 32 -13 53 -15 72 -96 318 -126 385 -5 11 -29 65 -52 120 -24
55 -48 103 -53 107 -6 4 -8 8 -4 8 4 0 -3 19 -16 43 -13 23 -40 73 -60 110
-177 326 -465 683 -752 934 -90 78 -99 86 -135 113 -18 14 -41 33 -51 43 -10
9 -21 17 -24 17 -3 0 -24 15 -47 33 -64 52 -222 157 -235 157 -7 0 -12 5 -12
10 0 6 -6 10 -14 10 -8 0 -16 4 -18 8 -6 16 -293 166 -428 225 -19 8 -55 24
-80 35 -25 11 -63 25 -85 32 -22 7 -44 15 -50 19 -5 3 -12 6 -15 7 -3 0 -12 4
-20 7 -34 14 -209 69 -265 83 -33 8 -67 18 -75 21 -8 3 -24 7 -36 8 -11 2 -38
8 -60 14 -36 9 -63 15 -119 26 -11 2 -31 6 -45 8 -60 12 -198 31 -227 31 -18
0 -33 3 -33 6 0 3 -19 6 -42 7 -24 0 -86 4 -138 8 -203 16 -632 3 -670 -20 -6
-3 -10 -1 -10 5 0 7 -6 8 -17 2 -10 -5 -40 -10 -68 -11 -27 -2 -54 -5 -59 -8
-5 -4 -19 -7 -30 -9 -73 -8 -106 -14 -146 -23 -25 -5 -56 -12 -70 -14 -64 -12
-206 -50 -216 -58 -6 -5 -13 -7 -16 -4 -2 3 -40 -7 -84 -21 -43 -15 -83 -27
-89 -29 -5 -1 -23 -8 -40 -14 -16 -7 -37 -14 -45 -16 -8 -2 -16 -4 -17 -5 -2
-2 -6 -3 -10 -5 -22 -6 -131 -50 -193 -78 -25 -11 -47 -21 -50 -21 -18 -4
-208 -101 -222 -114 -10 -8 -18 -12 -18 -7 0 4 -7 2 -15 -5 -8 -6 -29 -20 -47
-29 -52 -28 -101 -55 -112 -64 -6 -4 -56 -37 -111 -74 -55 -37 -101 -70 -103
-75 -2 -4 -8 -8 -13 -8 -8 0 -124 -86 -155 -115 -6 -5 -28 -23 -49 -40 -133
-105 -349 -324 -492 -501 -91 -112 -104 -130 -175 -238 -37 -55 -72 -106 -78
-113 -5 -7 -10 -16 -10 -20 0 -4 -7 -16 -14 -26 -13 -17 -16 -13 -35 40 -12
32 -28 72 -35 88 -8 17 -21 48 -31 70 -60 139 -215 436 -257 495 -10 14 -18
30 -18 37 0 7 -4 13 -8 13 -5 0 -20 21 -35 48 -14 26 -34 56 -44 67 -11 11
-28 35 -38 53 -11 17 -23 32 -27 32 -4 0 -8 5 -8 11 0 9 -58 84 -150 194 -33
40 -266 272 -310 310 -19 17 -52 41 -72 55 -21 14 -38 28 -38 33 0 4 -5 7 -11
7 -6 0 -17 6 -24 13 -29 25 -44 37 -49 37 -3 0 -24 13 -48 29 -24 16 -60 38
-80 50 -109 60 -173 95 -173 92 0 -2 -25 8 -55 22 -55 25 -220 83 -262 91 -48
10 -70 15 -86 20 -9 3 -33 8 -52 10 -19 3 -46 8 -60 11 -30 7 -376 16 -382 10z"/>
</g>
</svg>
